<svg xmlns="http://www.w3.org/2000/svg" xmlns:xlink="http://www.w3.org/1999/xlink" width="969" height="792" viewBox="0 0 969 792">
  <defs>
    <clipPath id="clip-_404">
      <rect width="969" height="792"/>
    </clipPath>
  </defs>
  <g id="_404" data-name="404" clip-path="url(#clip-_404)">
    <g id="Group_1" data-name="Group 1" transform="translate(-0.005 17.808)">
      <path id="Path_1" data-name="Path 1" d="M631.285,328.954c-8.639-14.288-18.875-29.543-34.906-34.208-18.565-5.4-37.637,5.33-53.813,15.921A1568.086,1568.086,0,0,0,403.013,413.487l.049.555L507.2,406.861c25.08-1.73,51.021-3.7,73.184-15.562,8.41-4.5,16.609-10.516,26.139-10.935,11.84-.521,22.164,7.749,30.278,16.388,47.993,51.106,61.881,129.259,115.724,174.159A1708.727,1708.727,0,0,0,631.285,328.954Z" transform="translate(-140.474 -148.137)" fill="#fff"/>
      <path id="Path_2" data-name="Path 2" d="M939.222,766.165c-5.307-6.7-7.476-8.271-12.711-15.035q-63.939-82.7-120.2-170.978Q768.1,520.194,733.682,457.934q-16.387-29.6-31.877-59.664-12.019-23.311-23.5-46.9c-2.189-4.492-4.316-9-6.433-13.527-4.988-10.636-9.882-21.323-15.138-31.815-5.989-11.957-13.279-24.493-24.277-32.527a33.122,33.122,0,0,0-17.255-6.64c-8.953-.578-17.213,3.118-24.979,7.156-56.814,29.625-110,66.768-158.112,109.033A823.152,823.152,0,0,0,303.654,525.641c-1.136,1.621-3.821.072-2.674-1.559q6.769-9.572,13.806-18.938A827.7,827.7,0,0,1,526.1,308.04q20.555-13.32,41.882-25.392c7.166-4.058,14.364-8.065,21.685-11.823,7.177-3.686,14.8-7,23-7.125,27.9-.434,42.347,31.164,52.271,52.425q4.678,10.037,9.469,20.012,18.107,37.871,37.607,75.05,12.035,22.955,24.6,45.641,39.094,70.646,83.1,138.431c38.867,59.86,77.425,112.74,121.7,168.717C942.629,765.525,940.451,767.735,939.222,766.165Z" transform="translate(-153.406 -151.879)" fill="#e4e4e4"/>
      <path id="Path_3" data-name="Path 3" d="M443.036,361.543c-1.621-1.807-3.232-3.614-4.864-5.421-12.866-14.229-26.672-28.293-44.34-36.451a64.329,64.329,0,0,0-26.951-6.247c-9.644.031-19.072,2.561-27.983,6.1-4.213,1.683-8.333,3.593-12.391,5.628-4.637,2.334-9.191,4.822-13.723,7.332q-12.763,7.063-25.2,14.746-24.736,15.288-47.923,32.909-12.02,9.139-23.544,18.876-10.718,9.046-21,18.577c-1.466,1.353-3.655-.836-2.189-2.189,1.807-1.683,3.635-3.356,5.463-5.008q7.745-7,15.737-13.734,14.575-12.3,29.9-23.647Q267.87,355.358,293.35,340.1q12.732-7.621,25.815-14.6c2.633-1.4,5.3-2.778,7.993-4.079a127.413,127.413,0,0,1,19-7.734,67.592,67.592,0,0,1,28.7-2.819,74.711,74.711,0,0,1,26.476,9.159c17.348,9.7,30.8,24.689,43.9,39.322C446.547,360.83,444.368,363.03,443.036,361.543Z" transform="translate(-167.09 -145.975)" fill="#e4e4e4"/>
      <path id="Path_4" data-name="Path 4" d="M730.688,490.544l41.569-15.2,20.639-7.549c6.722-2.459,13.427-5.257,20.376-7.018a32.146,32.146,0,0,1,18.443.235,42.507,42.507,0,0,1,14.385,8.917,116.752,116.752,0,0,1,11.8,12.6c4.494,5.4,8.921,10.857,13.368,16.3q27.531,33.669,54.7,67.63t53.977,68.21q26.872,34.333,53.375,68.953,3.246,4.241,6.488,8.486c1.194,1.563,3.885.022,2.675-1.563q-26.7-34.969-53.769-69.65-27.137-34.765-54.649-69.235t-55.395-68.64q-6.947-8.513-13.916-17.007c-3.919-4.777-7.794-9.605-12.093-14.051-7.891-8.161-17.749-15.373-29.55-15.569-6.938-.115-13.653,2.087-20.1,4.419-6.95,2.514-13.882,5.075-20.823,7.614l-41.86,15.31-10.465,3.828c-1.857.679-1.055,3.674.824,2.987Z" transform="translate(-99.295 -127.523)" fill="#e4e4e4"/>
      <path id="Path_5" data-name="Path 5" d="M373.962,335.3c-21.125-10.857-48.178-8.731-67.59,4.834a964,964,0,0,1,109.678,25.6C401.089,356.967,389.385,343.231,373.962,335.3Z" transform="translate(-152.69 -143.703)" fill="#fff"/>
      <path id="Path_6" data-name="Path 6" d="M306.644,338.784l-4.067,3.306c1.376-1.157,2.806-2.242,4.275-3.268Z" transform="translate(-153.169 -142.388)" fill="#f2f2f2"/>
      <path id="Path_7" data-name="Path 7" d="M833.833,488.217c-4.092-4.981-8.516-10.2-14.637-12.22l-5.714.225a648.169,648.169,0,0,0,172.64,197.368Z" transform="translate(-88.592 -125.044)" fill="#fff"/>
      <path id="Path_8" data-name="Path 8" d="M516.514,450.367a42.218,42.218,0,0,0,16.818,23.607c3.177,2.163,6.935,4.238,8.022,7.924a9.438,9.438,0,0,1-.984,6.927,28.029,28.029,0,0,1-4.349,5.679l-.154.577c-7.883-4.672-15.383-10.581-19.737-18.643s-4.962-18.629.384-26.071" transform="translate(-126.612 -128.284)" fill="#fff"/>
      <path id="Path_9" data-name="Path 9" d="M749.514,653.367a42.218,42.218,0,0,0,16.818,23.607c3.177,2.163,6.935,4.238,8.022,7.924a9.437,9.437,0,0,1-.984,6.927,28.031,28.031,0,0,1-4.349,5.678l-.154.577c-7.883-4.672-15.383-10.581-19.737-18.643s-4.962-18.629.384-26.071" transform="translate(-97.162 -102.625)" fill="#f2f2f2"/>
      <path id="Path_10" data-name="Path 10" d="M284.514,639.367a42.219,42.219,0,0,0,16.818,23.607c3.177,2.163,6.935,4.238,8.022,7.924a9.438,9.438,0,0,1-.984,6.927,28.03,28.03,0,0,1-4.349,5.678l-.154.577c-7.883-4.672-15.383-10.581-19.737-18.643s-4.962-18.629.384-26.071" transform="translate(-155.937 -104.395)" fill="#f2f2f2"/>
      <circle id="Ellipse_1" data-name="Ellipse 1" cx="57.446" cy="57.446" r="57.446" transform="translate(673.866)" fill="#b51b75"/>
      <path id="Path_11" data-name="Path 11" d="M923.914,176.36c-27.841-3.763-59.626,11.285-66.842,38.437a24.326,24.326,0,0,0-46.288,2.375l3.187,2.283a419.331,419.331,0,0,0,180.966-.818C975.57,198.284,951.754,180.123,923.914,176.36Z" transform="translate(-88.933 -162.99)" fill="#fff"/>
      <path id="Path_12" data-name="Path 12" d="M817.914,244.36c-27.841-3.763-59.626,11.285-66.842,38.437a24.326,24.326,0,0,0-46.288,2.375l3.187,2.283a419.329,419.329,0,0,0,180.966-.818C869.57,266.284,845.754,248.123,817.914,244.36Z" transform="translate(-102.331 -154.395)" fill="#fff"/>
      <path id="Path_13" data-name="Path 13" d="M1127.49,265.758a1.108,1.108,0,0,1-.34-.053c-297.832-94.187-560.326-81.87-728.086-54.953-22.83,3.662-45.722,7.891-68.039,12.572-5.7,1.193-11.608,2.473-17.568,3.8-7.118,1.585-14.14,3.217-20.875,4.85q-4.363,1.033-8.555,2.082c-4.233,1.045-8.529,2.134-13.133,3.331-5.145,1.327-10.373,2.718-15.541,4.136a.494.494,0,0,1-.058.017h0c-5.838,1.594-11.645,3.234-17.26,4.872-3.039.878-5.974,1.743-8.785,2.6-.314.087-.592.171-.874.256l-.6.184c-.35.107-.7.211-1.041.31l-.022.007h0l-.914.284c-1.09.33-2.154.652-3.2.973-27.647,8.523-42.846,14.586-43,14.645a1.126,1.126,0,1,1-.838-2.091c.151-.059,15.424-6.153,43.172-14.708,1.05-.322,2.116-.645,3.21-.976l.849-.264c.029-.011.058-.02.088-.029.344-.1.687-.2,1.036-.308l.6-.184c.3-.091.6-.182.9-.265,2.792-.849,5.736-1.717,8.783-2.6,5.618-1.639,11.43-3.279,17.272-4.875.018-.007.037-.011.055-.016h0c5.186-1.422,10.433-2.819,15.6-4.15,4.612-1.2,8.915-2.289,13.156-3.336q4.21-1.048,8.571-2.087c6.742-1.635,13.779-3.269,20.909-4.858,5.969-1.333,11.89-2.616,17.6-3.81,22.351-4.688,45.279-8.924,68.144-12.592,168-26.956,430.869-39.293,729.12,55.03a1.126,1.126,0,0,1-.339,2.2Z" transform="translate(-168.909 -161.309)" fill="#ccc"/>
      <path id="Path_18" data-name="Path 18" d="M644.357,724.792h2.623V605.347h61.2V602.73h-61.2v-50.4h47.259q-1.039-1.322-2.139-2.61h-45.12V516.433c-.868-.37-1.742-.726-2.623-1.063v34.351H592.934V507.07c-.881.04-1.749.1-2.623.175v42.477H549.287V517.9c-.881.39-1.749.8-2.61,1.231v30.591H512.191v2.61h34.486v50.4H512.191v2.617h34.486V724.792h2.61V605.347a41.017,41.017,0,0,1,41.023,41.032v78.413h2.623V605.347h51.422ZM549.288,602.73v-50.4h41.024v50.4Zm43.647,0v-50.4h1.029a50.388,50.388,0,0,1,50.393,50.4Z" transform="translate(-126.675 -121.117)" fill="#213555" opacity="0.18"/>
      <path id="Path_19" data-name="Path 19" d="M620.254,675.072a71.028,71.028,0,0,1-22.584,37.96c-.834.721-1.667,1.419-2.534,2.106q-3.16.287-6.274.586c-1.723.158-3.424.327-5.114.484l-.3.034-.214-1.847-.856-7.479a42.378,42.378,0,0,1-3.717-36.54c2.974-8.02,8.358-15.1,13.652-22.134,7.31-9.71,14.418-19.306,14.677-31.145a68.2,68.2,0,0,1,8.9,15.015,18.509,18.509,0,0,0-5.767,4.246c-.462.507-.924,1.217-.608,1.825.27.518.946.642,1.532.71l4.235.439c1.126.124,2.253.237,3.379.36a72.073,72.073,0,0,1,2.76,13.72A68.923,68.923,0,0,1,620.254,675.072Z" transform="translate(-118.593 -107.21)" fill="#3f3d56"/>
      <path id="Path_20" data-name="Path 20" d="M656.8,642.367c-6.646,4.832-10.532,11.782-13.551,19.442a18.729,18.729,0,0,0-8.076,5.159c-.462.507-.924,1.216-.608,1.825.27.518.946.642,1.532.71l4.235.439c-3.019,9.056-5.79,18.428-11.129,26.076a41.664,41.664,0,0,1-13.551,12.289,43.341,43.341,0,0,1-4.528,2.241q-8.583.659-16.84,1.408-3.16.287-6.274.586c-1.723.158-3.424.327-5.114.484q-.017-.929,0-1.859a71.306,71.306,0,0,1,17.178-44.9c.507-.586,1.025-1.16,1.554-1.735a69.6,69.6,0,0,1,18.935-14.305,70.574,70.574,0,0,1,36.236-7.862Z" transform="translate(-117.739 -104.028)" fill="#8cc688"/>
      <path id="Path_21" data-name="Path 21" d="M592.573,709.959l-1.3,3.83-.653,1.949c-1.723.158-3.424.327-5.114.484l-.3.034-5.587.574c-.484-.563-.969-1.138-1.442-1.723a69.871,69.871,0,0,1,9.09-98.12c-1.487,7.783.248,15.24,3.1,22.641-.3.124-.6.248-.879.383a18.51,18.51,0,0,0-5.767,4.247c-.462.507-.924,1.216-.608,1.825.27.518.946.642,1.532.71l4.235.439c1.126.124,2.253.237,3.379.36l1.588.169c.079.169.146.327.225.5,3.21,6.961,6.668,13.956,8.617,21.21A49.207,49.207,0,0,1,603.837,675,42.357,42.357,0,0,1,592.573,709.959Z" transform="translate(-120.356 -107.224)" fill="#8cc688"/>
      <path id="Path_22" data-name="Path 22" d="M715.946,562.081c-9.7-18.915-24.72-34.829-42.389-46.524a128.676,128.676,0,0,0-59.206-20.7q-4.157-.378-8.334-.442c-3.291-.049-52.79,14.228-69.372,25.887a128.742,128.742,0,0,0-39.8,44.523,115.456,115.456,0,0,0-13.658,58.16,127.918,127.918,0,0,0,16.561,57.982A124.439,124.439,0,0,0,540.8,724.606c17.277,11.023,34.632,40.252,55.03,41.284,20.552,1.04,43.991-26.532,62.735-34.9a117.626,117.626,0,0,0,47-38.3,124.185,124.185,0,0,0,22.076-55.135c2.9-20.369,1.548-41.376-5.408-60.844a125.98,125.98,0,0,0-6.286-14.624c-2-3.948-7.88-5.4-11.558-3.031a8.65,8.65,0,0,0-3.031,11.558q1.766,3.478,3.284,7.071l-.852-2.018a113.937,113.937,0,0,1,7.746,28.766l-.3-2.246a123.04,123.04,0,0,1-.075,32.308l.3-2.246a123.609,123.609,0,0,1-8.51,31.172l.852-2.018a117.38,117.38,0,0,1-7.515,14.754q-2.166,3.588-4.6,7.008c-.712,1-1.445,1.984-2.184,2.964-.965,1.279,1.314-1.671.318-.416-.17.214-.338.428-.509.641q-.767.959-1.556,1.9a105.45,105.45,0,0,1-11.463,11.7q-1.539,1.343-3.129,2.626c-.528.426-1.05.87-1.6,1.267.021-.015,1.779-1.351.738-.576-.327.244-.652.491-.98.734q-3.278,2.428-6.729,4.609a116.563,116.563,0,0,1-16.621,8.688l2.018-.852a123.02,123.02,0,0,1-31.085,8.506l2.246-.3a121.821,121.821,0,0,1-32.2.057l2.246.3a112.457,112.457,0,0,1-28.267-7.642l2.018.852a105.476,105.476,0,0,1-15.112-7.875q-3.576-2.253-6.965-4.784c-.322-.241-.642-.485-.963-.727-1.031-.778.741.574.755.583a21.618,21.618,0,0,1-1.729-1.379q-1.637-1.333-3.223-2.728a114.878,114.878,0,0,1-11.82-12.063q-1.366-1.615-2.674-3.278c-.378-.48-1.066-1.453.455.6-.2-.27-.408-.534-.61-.8q-.728-.966-1.437-1.946-2.482-3.433-4.717-7.035a123.1,123.1,0,0,1-8.792-17.018l.852,2.018a120.058,120.058,0,0,1-8.268-30.229l.3,2.246a110.24,110.24,0,0,1-.055-28.876l-.3,2.246a106.642,106.642,0,0,1,7.428-26.988l-.852,2.018a114.4,114.4,0,0,1,8.1-15.608q2.327-3.743,4.931-7.3.592-.809,1.2-1.608c.365-.482,1.369-1.682-.344.438.168-.208.329-.422.495-.631q1.429-1.811,2.928-3.565A120.975,120.975,0,0,1,536.794,541.5q1.66-1.455,3.373-2.849.778-.633,1.567-1.253c.21-.165.423-.327.633-.494-2.25,1.79-.625.487-.114.1q3.53-2.645,7.249-5.025a116.746,116.746,0,0,1,17.331-9.133l-2.018.852c8.741-3.67,47.467-12.333,54.511-11.388l-2.246-.3a119.656,119.656,0,0,1,30.1,8.316l-2.018-.852a124.236,124.236,0,0,1,14.193,7.129q3.428,2.009,6.722,4.238,1.558,1.055,3.084,2.157.763.551,1.516,1.114c.279.208.556.42.835.628,1.171.878-1.612-1.271-.385-.3A124.864,124.864,0,0,1,682.8,544.865q2.7,2.754,5.223,5.683,1.292,1.5,2.53,3.05c.41.512,1.808,2.367.1.1.419.555.842,1.107,1.255,1.666a110.358,110.358,0,0,1,9.452,15.249c2.02,3.94,7.87,5.409,11.558,3.031A8.647,8.647,0,0,0,715.946,562.081Z" transform="translate(-130.348 -122.717)" fill="#213555"/>
      <path id="Path_23" data-name="Path 23" d="M613.855,694.074a4.258,4.258,0,0,1-3.086-7.38l.292-1.16-.116-.278c-3.92-9.346-28.932,16.708-30.013,25.492a33.825,33.825,0,0,0,.594,11.633,135.611,135.611,0,0,1-12.336-56.323,130.933,130.933,0,0,1,.812-14.6q.673-5.962,1.866-11.839a137.18,137.18,0,0,1,27.2-58.141c7.743.432,14.528-.747,15.183-15.753.116-2.669,2.1-4.98,2.533-7.61-.739.1-1.49.157-2.23.206l-.7.036-.087,0a4.218,4.218,0,0,1-3.464-6.872l.958-1.178c.485-.606.982-1.2,1.466-1.806a2.1,2.1,0,0,0,.158-.182c.557-.691,1.115-1.369,1.672-2.06a12.2,12.2,0,0,0-4-3.865c-5.586-3.272-13.293-1.006-17.328,4.047s-4.811,12.142-3.405,18.455a48.88,48.88,0,0,0,6.762,15.074c-.3.388-.618.763-.921,1.151a138.079,138.079,0,0,0-14.411,22.83c1.145-8.942-12.854-41.235-18.268-48.075-6.5-8.216-19.837-4.63-20.983,5.785q-.016.151-.032.3,1.206.681,2.361,1.444a5.775,5.775,0,0,1-2.328,10.51l-.118.018c-10.764,15.368,23.742,55.368,32.379,46.387a140.923,140.923,0,0,0-7.586,35.7,133.664,133.664,0,0,0,.1,21.582l-.036-.255c-1.918-15.637-34.84-38.886-44.454-36.95-5.538,1.116-10.993.862-10.152,6.448q.02.134.041.268a38.778,38.778,0,0,1,4.35,2.1q1.206.681,2.361,1.444a5.775,5.775,0,0,1-2.328,10.51l-.118.018-.242.036c-4.9,16.858,31.435,44.065,53.524,35.408h.012a140.894,140.894,0,0,0,9.464,27.628h33.808c.121-.376.23-.763.339-1.139a38.417,38.417,0,0,1-9.355-.557c2.508-3.078,5.017-6.18,7.525-9.258a2.1,2.1,0,0,0,.157-.182c1.272-1.575,2.557-3.138,3.829-4.714v0a56.266,56.266,0,0,0-1.649-14.333ZM575.14,617.915l.018-.024-.018.048Zm-7.489,67.508-.291-.654c.012-.473.012-.945,0-1.43,0-.133-.024-.267-.024-.4.109.836.206,1.672.327,2.508Z" transform="translate(-126.693 -116.845)" fill="#213555"/>
      <circle id="Ellipse_7" data-name="Ellipse 7" cx="12.39" cy="12.39" r="12.39" transform="translate(533.066 380.722)" fill="#3f3d56"/>
      <path id="Path_25" data-name="Path 25" d="M547.951,514.813a12.333,12.333,0,1,1-.237-2.433A12.333,12.333,0,0,1,547.951,514.813Z" transform="translate(-125.272 -121.701)" fill="#3f3d56"/>
      <circle id="Ellipse_9" data-name="Ellipse 9" cx="18.022" cy="18.022" r="18.022" transform="translate(462.103 362.7)" fill="#3f3d56"/>
      <path id="Path_27" data-name="Path 27" d="M1137.448,735.568l-966.167.346a1.341,1.341,0,1,1,0-2.682l966.167-.346a1.341,1.341,0,0,1,0,2.682Z" transform="translate(-169.934 -92.574)" fill="#cacaca"/>
      <text id="_4" data-name="4" transform="translate(114.43 641.192)" fill="#213555" font-size="380" font-family="NotoSans-Bold, Noto Sans" font-weight="700"><tspan x="0" y="0">4</tspan></text>
      <text id="_4-2" data-name="4" transform="translate(617.43 641.192)" fill="#213555" font-size="380" font-family="NotoSans-Bold, Noto Sans" font-weight="700"><tspan x="0" y="0">4</tspan></text>
    </g>
  </g>
</svg>
