<?xml version="1.0" encoding="UTF-8" standalone="no"?><!DOCTYPE svg PUBLIC "-//W3C//DTD SVG 1.1//EN" "http://www.w3.org/Graphics/SVG/1.1/DTD/svg11.dtd"><svg width="100%" height="100%" viewBox="0 0 4037 2681" version="1.1" xmlns="http://www.w3.org/2000/svg" xmlns:xlink="http://www.w3.org/1999/xlink" xml:space="preserve" xmlns:serif="http://www.serif.com/" style="fill-rule:evenodd;clip-rule:evenodd;stroke-linejoin:round;stroke-miterlimit:2;"><g id="_404"><g id="Group_1"><path id="Path_1" d="M2115.85,753.404c-35.996,-59.533 -78.646,-123.096 -145.441,-142.533c-77.355,-22.5 -156.821,22.208 -224.221,66.337c-201.575,131.976 -395.695,275 -581.471,428.417l0.204,2.313l433.908,-29.921c104.5,-7.209 212.588,-15.417 304.934,-64.842c35.041,-18.75 69.204,-43.817 108.912,-45.563c49.334,-2.17 92.35,32.288 126.159,68.284c199.97,212.941 257.837,538.579 482.183,725.662c-141.47,-348.878 -310.389,-685.987 -505.167,-1008.15Z" style="fill:#213555;fill-opacity:0.55;fill-rule:nonzero;"/><path id="Path_2" d="M3345.04,2559.53c-22.113,-27.917 -31.15,-34.463 -52.963,-62.646c-177.608,-229.722 -344.553,-467.191 -500.833,-712.408c-106.142,-166.55 -207.015,-336.297 -302.621,-509.242c-45.519,-82.222 -89.793,-165.089 -132.821,-248.6c-33.386,-64.753 -66.025,-129.891 -97.916,-195.416c-9.121,-18.717 -17.984,-37.5 -26.805,-56.363c-20.783,-44.317 -41.175,-88.846 -63.075,-132.562c-24.954,-49.821 -55.329,-102.055 -101.154,-135.53c-20.851,-15.858 -45.793,-25.456 -71.896,-27.666c-37.304,-2.409 -71.72,12.991 -104.079,29.816c-236.725,123.438 -458.333,278.2 -658.8,454.305c-200.968,176.495 -380.602,375.894 -535.237,594.129c-4.734,6.754 -15.921,0.3 -11.142,-6.496c18.803,-26.589 37.978,-52.892 57.525,-78.908c243.061,-323.262 541.102,-601.262 880.475,-821.267c57.097,-37 115.267,-72.267 174.508,-105.8c29.859,-16.908 59.85,-33.604 90.355,-49.263c29.904,-15.358 61.666,-29.166 95.833,-29.687c116.25,-1.808 176.446,129.85 217.796,218.437c12.994,27.881 26.146,55.675 39.454,83.384c50.297,105.197 102.529,209.433 156.696,312.708c33.43,63.764 67.597,127.154 102.5,190.171c108.594,196.239 224.011,388.504 346.25,576.796c161.946,249.416 322.604,469.75 507.083,702.987c5.063,6.454 -4.012,15.663 -9.133,9.121Z" style="fill:#213555;fill-opacity:0.55;fill-rule:nonzero;"/><path id="Path_3" d="M1220.58,898.2c-6.754,-7.529 -13.466,-15.058 -20.266,-22.587c-53.609,-59.288 -111.134,-117.888 -184.75,-151.88c-35.1,-16.717 -73.421,-25.599 -112.296,-26.029c-40.183,0.129 -79.467,10.671 -116.596,25.417c-17.554,7.012 -34.721,14.971 -51.629,23.45c-19.321,9.725 -38.296,20.091 -57.179,30.55c-35.453,19.619 -70.453,40.1 -105,61.441c-68.711,42.467 -135.271,88.174 -199.679,137.121c-33.389,25.386 -66.089,51.603 -98.1,78.65c-29.773,25.128 -58.939,50.929 -87.5,77.404c-6.109,5.638 -15.23,-3.483 -9.121,-9.12c7.529,-7.013 15.146,-13.984 22.762,-20.867c21.514,-19.444 43.371,-38.519 65.571,-57.225c40.486,-34.167 82.014,-67.01 124.583,-98.529c66.228,-49.045 134.731,-94.759 205.509,-137.142c35.366,-21.169 71.221,-41.447 107.562,-60.833c10.971,-5.834 22.084,-11.575 33.304,-16.996c25.48,-12.852 51.955,-23.629 79.167,-32.225c38.551,-12.472 79.343,-16.478 119.583,-11.746c38.849,5.651 76.281,18.6 110.317,38.163c72.283,40.416 128.333,102.87 182.917,163.841c5.471,6.171 -3.609,15.338 -9.159,9.142Z" style="fill:#213555;fill-opacity:0.55;fill-rule:nonzero;"/><path id="Path_4" d="M2701.61,1512.59l173.204,-63.334l85.996,-31.454c28.008,-10.246 55.945,-21.904 84.9,-29.242c25.158,-7.186 51.878,-6.845 76.845,0.98c22.267,8.241 42.652,20.877 59.938,37.154c17.662,16.262 34.096,33.81 49.167,52.5c18.725,22.5 37.17,45.237 55.7,67.916c76.475,93.525 152.447,187.456 227.916,281.792c75.47,94.336 150.438,189.072 224.904,284.208c74.645,95.37 148.777,191.138 222.396,287.305c9.017,11.78 18.028,23.566 27.034,35.358c4.975,6.512 16.187,0.092 11.145,-6.513c-74.166,-97.136 -148.845,-193.872 -224.037,-290.208c-75.381,-96.569 -151.282,-192.729 -227.704,-288.479c-76.423,-95.75 -153.36,-191.083 -230.813,-286c-19.297,-23.647 -38.625,-47.268 -57.983,-70.863c-16.329,-19.904 -32.475,-40.02 -50.388,-58.545c-32.879,-34.005 -73.954,-64.055 -123.125,-64.871c-28.908,-0.479 -56.887,8.696 -83.75,18.412c-28.958,10.475 -57.841,21.146 -86.762,31.725l-174.417,63.792l-43.604,15.95c-7.737,2.829 -4.396,15.308 3.433,12.446l0.005,-0.029Z" style="fill:#213555;fill-opacity:0.55;fill-rule:nonzero;"/><path id="Path_5" d="M992.775,798.321c-88.021,-45.238 -200.742,-36.379 -281.625,20.142c154.279,26.619 306.87,62.235 456.992,106.666c-62.338,-36.529 -111.104,-93.762 -175.367,-126.808Z" style="fill:#213555;fill-opacity:0.55;fill-rule:nonzero;"/><path id="Path_6" d="M710.288,818.317l-16.946,13.775c5.733,-4.821 11.691,-9.342 17.812,-13.617l-0.866,-0.158Z" style="fill:#f2f2f2;fill-rule:nonzero;"/><path id="Path_7" d="M3175.98,1513.22c-17.05,-20.754 -35.483,-42.5 -60.987,-50.917l-23.809,0.938c181.241,320.258 426.04,600.121 719.334,822.366l-634.538,-772.387Z" style="fill:#213555;fill-opacity:0.24;fill-rule:nonzero;"/><path id="Path_9" d="M2788.94,2294.76c11.015,40.02 35.849,74.878 70.075,98.363c13.237,9.012 28.896,17.658 33.425,33.016c2.381,9.788 0.912,20.126 -4.1,28.863c-5.006,8.627 -11.095,16.578 -18.121,23.658l-0.642,2.405c-32.846,-19.467 -64.096,-44.088 -82.237,-77.68c-18.142,-33.591 -20.675,-77.621 1.6,-108.629" style="fill:#f2f2f2;fill-rule:nonzero;"/><path id="Path_10" d="M606.546,2229.05c11.016,40.02 35.849,74.878 70.075,98.362c13.237,9.013 28.896,17.659 33.425,33.017c2.381,9.788 0.912,20.125 -4.1,28.863c-5.005,8.627 -11.095,16.578 -18.121,23.658l-0.642,2.404c-32.845,-19.466 -64.095,-44.087 -82.237,-77.679c-18.142,-33.592 -20.675,-77.621 1.6,-108.629" style="fill:#f2f2f2;fill-rule:nonzero;"/><circle id="Ellipse_1" cx="3117.94" cy="239.358" r="239.358" style="fill:#b51b75;"/><path id="Path_11" d="M3549.9,55.708c-116.004,-15.679 -248.442,47.021 -278.508,160.155c-14.84,-39.402 -52.752,-65.635 -94.855,-65.635c-45.886,-0 -86.32,31.159 -98.012,75.53l13.279,9.513c248.585,53.757 505.936,52.593 754.025,-3.409c-80.696,-84.804 -179.929,-160.474 -295.929,-176.154Z" style="fill:#fff;fill-rule:nonzero;"/><path id="Path_12" d="M3052.4,374.854c-116.004,-15.679 -248.441,47.021 -278.508,160.154c-14.839,-39.401 -52.752,-65.634 -94.854,-65.634c-45.886,-0 -86.32,31.159 -98.013,75.53l13.279,9.513c248.585,53.757 505.936,52.594 754.025,-3.409c-80.695,-84.804 -179.929,-160.475 -295.929,-176.154Z" style="fill:#fff;fill-rule:nonzero;"/><path id="Path_18" d="M2227.82,2515.31l10.929,-0l-0,-497.688l255,0l-0,-10.904l-255,-0l-0,-210l196.912,-0c-2.886,-3.672 -5.857,-7.297 -8.912,-10.875l-188,-0l-0,-138.696c-3.617,-1.542 -7.258,-3.025 -10.929,-4.429l-0,143.129l-214.263,0l0,-177.712c-3.671,0.166 -7.287,0.416 -10.929,0.729l0,176.987l-170.933,0l-0,-132.592c-3.671,1.625 -7.288,3.334 -10.875,5.13l-0,127.462l-143.692,0l0,10.875l143.692,0l-0,210l-143.692,0l0,10.904l143.692,0l-0,497.68l10.875,-0l-0,-497.688c0.008,-0 0.016,-0 0.025,-0c93.755,-0 170.904,77.149 170.904,170.904c-0,0.021 -0,0.042 -0,0.063l-0,326.721l10.929,-0l0,-497.688l214.258,0l0.009,497.688Zm-396.121,-508.592l-0,-210l170.933,-0l0,210l-170.933,-0Zm181.862,-0l0,-210c0,-0 4.302,-0 4.309,-0c115.175,-0 209.95,94.775 209.95,209.95c-0,0.016 -0,0.033 -0,0.05l-214.259,-0Z" style="fill:#213555;fill-opacity:0.18;fill-rule:nonzero;"/><path id="Path_19" d="M2190.23,2366.09c-13.757,61.373 -46.728,116.791 -94.1,158.166c-3.475,3.005 -6.946,5.913 -10.558,8.775c-8.778,0.798 -17.492,1.611 -26.142,2.442c-7.179,0.658 -14.266,1.362 -21.308,2.017l-1.25,0.141l-0.892,-7.695l-3.566,-31.163c-28.011,-45.73 -33.716,-101.816 -15.488,-152.25c12.392,-33.417 34.825,-62.917 56.883,-92.225c30.459,-40.458 60.075,-80.442 61.155,-129.771c14.989,19.18 27.452,40.206 37.083,62.563c-9.085,4.276 -17.248,10.286 -24.029,17.691c-1.925,2.113 -3.85,5.071 -2.534,7.605c1.125,2.158 3.942,2.675 6.384,2.958l17.646,1.829c4.691,0.517 9.387,0.988 14.079,1.5c5.678,18.637 9.53,37.783 11.5,57.167c3.153,30.151 1.511,60.612 -4.863,90.25Z" style="fill:#213555;fill-rule:nonzero;"/><path id="Path_20" d="M2346.06,2243.08c-27.692,20.133 -43.884,49.092 -56.463,81.008c-12.89,4.126 -24.488,11.535 -33.65,21.496c-1.925,2.113 -3.85,5.067 -2.533,7.604c1.125,2.159 3.941,2.676 6.383,2.959l17.646,1.829c-12.579,37.733 -24.125,76.783 -46.371,108.65c-14.795,21.039 -34.082,38.53 -56.462,51.204c-6.102,3.477 -12.402,6.595 -18.867,9.338c-23.842,1.83 -47.231,3.786 -70.167,5.866c-8.778,0.798 -17.491,1.611 -26.141,2.442c-7.18,0.658 -14.267,1.363 -21.309,2.017c-0.047,-2.581 -0.047,-5.163 0,-7.746c1.484,-68.751 26.791,-134.899 71.575,-187.083c2.113,-2.442 4.271,-4.834 6.475,-7.23c22.692,-24.237 49.38,-44.399 78.896,-59.604c46.505,-24.179 98.64,-35.491 150.983,-32.758l0.005,0.008Z" style="fill:#8cc688;fill-rule:nonzero;"/><path id="Path_21" d="M2067.55,2511.4l-5.417,15.958l-2.721,8.121c-7.179,0.658 -14.266,1.362 -21.308,2.017l-1.25,0.141l-23.279,2.392c-2.017,-2.346 -4.038,-4.742 -6.008,-7.179c-101.308,-122.681 -84.247,-306.852 37.875,-408.833c-6.196,32.429 1.033,63.499 12.916,94.337c-1.25,0.517 -2.5,1.033 -3.662,1.596c-9.086,4.278 -17.248,10.289 -24.029,17.696c-1.925,2.112 -3.85,5.066 -2.534,7.604c1.125,2.158 3.942,2.675 6.384,2.958l17.645,1.829c4.692,0.517 9.388,0.988 14.08,1.5l6.616,0.704c0.329,0.705 0.609,1.363 0.938,2.084c13.375,29.004 27.783,58.15 35.904,88.375c2.034,7.581 3.631,15.273 4.783,23.037c7.311,53.13 -9.981,106.795 -46.933,145.663Z" style="fill:#8cc688;fill-rule:nonzero;"/><path id="Path_22" d="M2469.13,1830.68c-40.416,-78.812 -103,-145.12 -176.62,-193.85c-73.854,-48.654 -158.611,-78.288 -246.692,-86.25c-11.547,-1.05 -23.122,-1.664 -34.725,-1.841c-13.713,-0.204 -219.958,59.283 -289.05,107.862c-69.051,47.983 -125.862,111.536 -165.833,185.513c-39.899,74.38 -59.529,157.968 -56.909,242.333c3.42,84.875 27.081,167.714 69.004,241.592c41.355,73.632 100.08,136.057 171.05,181.829c71.988,45.929 144.3,167.716 229.292,172.016c85.633,4.334 183.296,-110.55 261.396,-145.416c78.095,-35.166 145.625,-90.196 195.833,-159.583c48.788,-68.007 80.355,-146.845 91.984,-229.73c12.083,-84.87 6.45,-172.4 -22.534,-253.516c-7.437,-20.843 -16.185,-41.195 -26.191,-60.934c-8.334,-16.45 -32.834,-22.5 -48.159,-12.629c-16.305,10.039 -21.909,31.41 -12.629,48.159c4.906,9.661 9.467,19.481 13.683,29.462l-3.55,-8.408c15.958,38.368 26.809,78.665 32.275,119.858l-1.25,-9.358c5.814,44.69 5.708,89.953 -0.312,134.616l1.25,-9.358c-6.085,44.659 -18.007,88.327 -35.458,129.883l3.55,-8.408c-8.978,21.203 -19.441,41.746 -31.313,61.475c-6.017,9.967 -12.406,19.7 -19.167,29.2c-2.966,4.167 -6.02,8.267 -9.1,12.35c-4.02,5.329 5.475,-6.962 1.325,-1.733c-0.708,0.891 -1.408,1.783 -2.12,2.671c-2.131,2.663 -4.292,5.302 -6.484,7.916c-14.633,17.464 -30.602,33.763 -47.762,48.75c-4.275,3.731 -8.621,7.378 -13.038,10.942c-2.2,1.775 -4.375,3.625 -6.666,5.279c0.087,-0.062 7.412,-5.629 3.075,-2.4c-1.363,1.017 -2.717,2.046 -4.084,3.058c-9.105,6.745 -18.451,13.146 -28.037,19.205c-22.075,13.907 -45.235,26.013 -69.254,36.2l8.408,-3.55c-41.433,17.442 -84.98,29.358 -129.521,35.441l9.358,-1.25c-44.514,6.016 -89.631,6.095 -134.166,0.238l9.358,1.25c-40.479,-5.436 -80.075,-16.14 -117.779,-31.842l8.408,3.55c-21.839,-9.221 -42.897,-20.195 -62.966,-32.812c-9.934,-6.259 -19.607,-12.903 -29.021,-19.934c-1.342,-1.004 -2.675,-2.021 -4.013,-3.029c-4.296,-3.242 3.088,2.392 3.146,2.429c-2.498,-1.791 -4.902,-3.709 -7.204,-5.746c-4.547,-3.702 -9.024,-7.491 -13.429,-11.366c-17.628,-15.523 -34.089,-32.323 -49.25,-50.263c-3.795,-4.486 -7.509,-9.039 -11.142,-13.658c-1.575,-2 -4.442,-6.054 1.896,2.5c-0.833,-1.125 -1.7,-2.225 -2.542,-3.333c-2.022,-2.684 -4.018,-5.387 -5.987,-8.109c-6.895,-9.536 -13.446,-19.307 -19.654,-29.312c-14.035,-22.649 -26.283,-46.357 -36.634,-70.909l3.55,8.409c-16.937,-40.299 -28.519,-82.645 -34.45,-125.954l1.25,9.358c-5.351,-39.922 -5.428,-80.375 -0.229,-120.317l-1.25,9.359c5.331,-38.681 15.738,-76.49 30.95,-112.45l-3.55,8.408c9.565,-22.512 20.848,-44.254 33.75,-65.033c6.464,-10.398 13.313,-20.537 20.546,-30.417c1.644,-2.247 3.311,-4.481 5,-6.7c1.521,-2.008 5.704,-7.008 -1.433,1.825c0.7,-0.867 1.37,-1.758 2.062,-2.629c3.969,-5.031 8.036,-9.982 12.2,-14.854c15.76,-18.478 32.835,-35.793 51.092,-51.809c4.611,-4.041 9.296,-7.998 14.054,-11.871c2.161,-1.758 4.337,-3.498 6.529,-5.22c0.875,-0.688 1.763,-1.363 2.638,-2.059c-9.375,7.459 -2.605,2.029 -0.475,0.417c9.805,-7.347 19.873,-14.327 30.204,-20.938c22.962,-14.685 47.118,-27.415 72.212,-38.054l-8.408,3.55c36.421,-15.291 197.779,-51.387 227.129,-47.45l-9.358,-1.25c43.139,6.022 85.304,17.671 125.416,34.65l-8.408,-3.55c20.326,8.63 40.079,18.552 59.138,29.704c9.522,5.581 18.858,11.467 28.008,17.659c4.328,2.93 8.611,5.926 12.85,8.987c2.119,1.531 4.225,3.078 6.317,4.642c1.162,0.867 2.316,1.75 3.479,2.617c4.879,3.658 -6.717,-5.296 -1.604,-1.25c17.104,13.447 33.349,27.955 48.637,43.437c7.5,7.65 14.754,15.543 21.763,23.679c3.588,4.167 7.102,8.403 10.541,12.709c1.709,2.133 7.534,9.862 0.417,0.416c1.746,2.313 3.508,4.613 5.229,6.942c14.83,20.075 28.002,41.324 39.383,63.537c8.417,16.417 32.792,22.538 48.159,12.63c16.317,-10.041 21.919,-31.43 12.616,-48.18Z" style="fill:#213555;fill-rule:nonzero;"/><path id="Path_23" d="M2129.82,2405.12c-0.272,0.012 -0.543,0.019 -0.814,0.019c-9.733,-0 -17.742,-8.009 -17.742,-17.742c-0,-4.945 2.067,-9.671 5.697,-13.027l1.217,-4.833l-0.483,-1.159c-16.334,-38.941 -120.55,69.617 -125.054,106.217c-1.985,16.178 -1.147,32.579 2.475,48.471c-33.757,-73.635 -51.287,-153.676 -51.4,-234.679c-0.007,-20.325 1.123,-40.635 3.383,-60.834c1.869,-16.561 4.461,-33.004 7.775,-49.329c18.087,-88.574 56.931,-171.605 113.333,-242.254c32.263,1.8 60.534,-3.113 63.263,-65.638c0.483,-11.12 8.75,-20.75 10.554,-31.708c-3.079,0.417 -6.208,0.654 -9.292,0.858l-2.916,0.15l-0.363,0c-0.262,0.012 -0.525,0.018 -0.788,0.018c-9.641,-0 -17.575,-7.934 -17.575,-17.575c0,-4.033 1.388,-7.945 3.93,-11.076l3.991,-4.908c2.021,-2.525 4.092,-5 6.109,-7.525c0.233,-0.24 0.453,-0.493 0.658,-0.759c2.321,-2.879 4.646,-5.704 6.967,-8.583c-4.242,-6.579 -9.946,-12.091 -16.667,-16.104c-23.275,-13.633 -55.387,-4.192 -72.2,16.862c-16.812,21.055 -20.046,50.592 -14.187,76.896c5.759,22.383 15.287,43.623 28.175,62.809c-1.25,1.616 -2.575,3.179 -3.838,4.795c-23.075,29.671 -43.186,61.532 -60.046,95.125c4.771,-37.258 -53.558,-171.812 -76.116,-200.312c-27.084,-34.234 -82.655,-19.292 -87.43,24.104c-0.044,0.419 -0.089,0.836 -0.133,1.25c3.35,1.892 6.629,3.897 9.838,6.017c6.677,4.46 10.697,11.979 10.697,20.01c0,11.822 -8.713,21.981 -20.397,23.781l-0.492,0.075c-44.85,64.034 98.925,230.7 134.912,193.279c-16.939,48.004 -27.564,98.007 -31.608,148.751c-2.285,29.937 -2.146,60.01 0.417,89.924l-0.15,-1.062c-7.992,-65.154 -145.167,-162.025 -185.225,-153.958c-23.075,4.65 -45.804,3.591 -42.3,26.866c0.055,0.373 0.112,0.745 0.171,1.117c6.217,2.537 12.271,5.46 18.125,8.75c3.35,1.892 6.629,3.897 9.837,6.017c6.678,4.46 10.698,11.979 10.698,20.01c-0,11.822 -8.713,21.981 -20.398,23.781l-0.492,0.075l-1.008,0.15c-20.417,70.242 130.979,183.604 223.017,147.534l0.05,-0c9.121,39.634 22.337,78.214 39.433,115.116l140.867,0c0.504,-1.566 0.958,-3.179 1.412,-4.746c-13.039,0.821 -26.129,0.041 -38.979,-2.32c10.45,-12.825 20.904,-25.75 31.354,-38.575c0.233,-0.24 0.451,-0.494 0.654,-0.759c5.3,-6.562 10.655,-13.075 15.955,-19.641c0.282,-20.12 -2.028,-40.192 -6.871,-59.721Zm-161.313,-317.329l0.075,-0.1l-0.075,0.2l0,-0.1Zm-31.204,281.283l-1.212,-2.725c0.05,-1.971 0.05,-3.937 -0,-5.958c-0,-0.554 -0.1,-1.113 -0.1,-1.667c0.454,3.483 0.858,6.967 1.362,10.45l-0.05,-0.1Z" style="fill:#213555;fill-rule:nonzero;"/><circle id="Ellipse_7" cx="2343.54" cy="1637.97" r="51.625" style="fill:#213555;"/><path id="Path_25" d="M1861.14,1637.97c-0.061,28.148 -23.24,51.276 -51.388,51.276c-28.19,-0 -51.387,-23.197 -51.387,-51.388c-0,-28.19 23.197,-51.387 51.387,-51.387c24.422,-0 45.635,17.409 50.4,41.361c0.664,3.338 0.995,6.734 0.988,10.138Z" style="fill:#213555;fill-rule:nonzero;"/><circle id="Ellipse_9" cx="2100.5" cy="1586.34" r="75.092" style="fill:#213555;"/><path id="Path_27" d="M4031.28,2679.14l-4025.7,1.441c-3.066,0 -5.588,-2.522 -5.588,-5.587c0,-3.065 2.522,-5.588 5.588,-5.588c-0,0 4025.7,-1.441 4025.7,-1.441c3.066,-0 5.588,2.522 5.588,5.587c-0,3.065 -2.522,5.588 -5.588,5.588Z" style="fill:#213555;fill-rule:nonzero;"/><g id="_4"><text x="560.1px" y="2671.63px" style="font-family:'Arial-BoldMT', 'Arial';font-weight:700;font-size:1583.33px;fill:#213555;">4</text></g><g id="_4-2"><text x="2572.6px" y="2671.63px" style="font-family:'Arial-BoldMT', 'Arial';font-weight:700;font-size:1583.33px;fill:#213555;">4</text></g></g></g></svg>