<?xml version="1.0" standalone="no"?>
<svg xmlns:xlink="http://www.w3.org/1999/xlink" id="wave" style="transform:rotate(0deg); transition: 0.3s" viewBox="0 0 1440 490" version="1.1" xmlns="http://www.w3.org/2000/svg"><defs><linearGradient id="sw-gradient-0" x1="0" x2="0" y1="1" y2="0"><stop stop-color="rgba(249, 249, 249, 1)" offset="0%"/><stop stop-color="rgba(245, 239, 231, 1)" offset="100%"/></linearGradient></defs><path style="transform:translate(0, 0px); opacity:1" fill="url(#sw-gradient-0)" d="M0,0L80,8.2C160,16,320,33,480,106.2C640,180,800,310,960,334.8C1120,359,1280,278,1440,261.3C1600,245,1760,294,1920,277.7C2080,261,2240,180,2400,187.8C2560,196,2720,294,2880,302.2C3040,310,3200,229,3360,171.5C3520,114,3680,82,3840,114.3C4000,147,4160,245,4320,245C4480,245,4640,147,4800,106.2C4960,65,5120,82,5280,114.3C5440,147,5600,196,5760,212.3C5920,229,6080,212,6240,228.7C6400,245,6560,294,6720,318.5C6880,343,7040,343,7200,359.3C7360,376,7520,408,7680,367.5C7840,327,8000,212,8160,187.8C8320,163,8480,229,8640,220.5C8800,212,8960,131,9120,130.7C9280,131,9440,212,9600,220.5C9760,229,9920,163,10080,122.5C10240,82,10400,65,10560,73.5C10720,82,10880,114,11040,106.2C11200,98,11360,49,11440,24.5L11520,0L11520,490L11440,490C11360,490,11200,490,11040,490C10880,490,10720,490,10560,490C10400,490,10240,490,10080,490C9920,490,9760,490,9600,490C9440,490,9280,490,9120,490C8960,490,8800,490,8640,490C8480,490,8320,490,8160,490C8000,490,7840,490,7680,490C7520,490,7360,490,7200,490C7040,490,6880,490,6720,490C6560,490,6400,490,6240,490C6080,490,5920,490,5760,490C5600,490,5440,490,5280,490C5120,490,4960,490,4800,490C4640,490,4480,490,4320,490C4160,490,4000,490,3840,490C3680,490,3520,490,3360,490C3200,490,3040,490,2880,490C2720,490,2560,490,2400,490C2240,490,2080,490,1920,490C1760,490,1600,490,1440,490C1280,490,1120,490,960,490C800,490,640,490,480,490C320,490,160,490,80,490L0,490Z"/></svg>