<svg xmlns="http://www.w3.org/2000/svg" xmlns:xlink="http://www.w3.org/1999/xlink" width="875" height="72" viewBox="0 0 875 72"><defs><clipPath id="clip-path"><rect id="Rectangle_82" data-name="Rectangle 82" width="51" height="51" transform="translate(306.64 294.64)"/></clipPath><clipPath id="clip-gear_divider"><rect width="875" height="72"/></clipPath></defs><g id="gear_divider" clip-path="url(#clip-gear_divider)"><rect width="875" height="72" fill="#fff"/><ellipse id="Ellipse_112" data-name="Ellipse 112" cx="20.838" cy="20.838" rx="20.838" ry="20.838" transform="translate(809.57 30.325)" fill="#f2f2f2"/><ellipse id="Ellipse_114" data-name="Ellipse 114" cx="4.465" cy="4.465" rx="4.465" ry="4.465" transform="translate(840.836 42.847)" fill="#005c94"/><ellipse id="Ellipse_115" data-name="Ellipse 115" cx="2.233" cy="2.233" rx="2.233" ry="2.233" transform="translate(860.186 35.405)" fill="#005c94"/><path id="Path_192" data-name="Path 192" d="M417.852,492.517a5.369,5.369,0,1,0-5.369-5.369A5.369,5.369,0,0,0,417.852,492.517Zm0-9.844a4.474,4.474,0,1,1-4.474,4.474,4.474,4.474,0,0,1,4.474-4.474Z" transform="translate(-74.553 -433.384)" fill="#2f2e41"/><path id="Path_194" data-name="Path 194" d="M175.949,324.732l6.025-6.459-6.459-6.025-6.025,6.459Zm5.065-6.426-5.1,5.466-5.466-5.1,5.1-5.465Z" transform="translate(518.419 -303.64)" fill="#2f2e41"/><ellipse id="Ellipse_118" data-name="Ellipse 118" cx="11.163" cy="11.163" rx="11.163" ry="11.163" transform="translate(599.923 25.325)" fill="#005c94" opacity="0.2"/><g id="gear" transform="translate(105.36 -283.64)" clip-path="url(#clip-path)"><path id="Path_323" data-name="Path 323" d="M348.8,348.433l.924,2.633,6.11-2.547-1.208-2.486a14.129,14.129,0,0,0,3.4-3.408l2.489,1.2,2.519-6.12-2.608-.9a14.087,14.087,0,0,0-.013-4.813l2.605-.914-2.547-6.11-2.489,1.208a14.117,14.117,0,0,0-3.408-3.39l1.2-2.494-6.12-2.519-.907,2.615-.008-.01a14.087,14.087,0,0,0-4.813.013h-.028l-.906-2.618-6.12,2.519,1.2,2.494a14.219,14.219,0,0,0-3.408,3.39l-2.489-1.208-2.547,6.11,2.605.914a14.224,14.224,0,0,0-.013,4.813l-2.608.9,2.519,6.12,2.489-1.2a14.13,14.13,0,0,0,3.4,3.408l-1.208,2.486,6.11,2.547.927-2.628a15.016,15.016,0,0,0,4.96-.005Z" transform="translate(-13.997 -14.096)" fill="none" stroke="#232f3e" stroke-linejoin="round" stroke-width="2"/><path id="Path_324" data-name="Path 324" d="M369.248,350.459a6.788,6.788,0,1,1-6.788-6.788A6.789,6.789,0,0,1,369.248,350.459Z" transform="translate(-30.14 -30.14)" fill="none" stroke="#232f3e" stroke-linejoin="round" stroke-width="2"/></g><ellipse id="Ellipse_228" data-name="Ellipse 228" cx="4.465" cy="4.465" rx="4.465" ry="4.465" transform="translate(26.756 34.538)" fill="#005c94"/><g id="decorative_SL01"><ellipse id="Ellipse_226" data-name="Ellipse 226" cx="20.838" cy="20.837" rx="20.838" ry="20.837" transform="translate(16.336)" fill="#f2f2f2"/><ellipse id="Ellipse_229" data-name="Ellipse 229" cx="2.233" cy="2.233" rx="2.233" ry="2.233" transform="translate(11.871 27.096)" fill="#005c94"/></g><path id="Path_329" data-name="Path 329" d="M370.4,184.161H361.57v-8.833H370.4Zm-8.153-.679h7.474v-7.474h-7.474Z" transform="translate(-275.836 -115.465)" fill="#3f3d56"/><ellipse id="Ellipse_230" data-name="Ellipse 230" cx="11.163" cy="11.163" rx="11.163" ry="11.163" transform="translate(252.337 25.837)" fill="#005c94" opacity="0.19"/><g id="gear-2" data-name="gear" transform="translate(-68.64 -283.64)" clip-path="url(#clip-path)"><path id="Path_325" data-name="Path 325" d="M348.8,348.433l.924,2.633,6.11-2.547-1.208-2.486a14.129,14.129,0,0,0,3.4-3.408l2.489,1.2,2.519-6.12-2.608-.9a14.087,14.087,0,0,0-.013-4.813l2.605-.914-2.547-6.11-2.489,1.208a14.117,14.117,0,0,0-3.408-3.39l1.2-2.494-6.12-2.519-.907,2.615-.008-.01a14.087,14.087,0,0,0-4.813.013h-.028l-.906-2.618-6.12,2.519,1.2,2.494a14.219,14.219,0,0,0-3.408,3.39l-2.489-1.208-2.547,6.11,2.605.914a14.224,14.224,0,0,0-.013,4.813l-2.608.9,2.519,6.12,2.489-1.2a14.13,14.13,0,0,0,3.4,3.408l-1.208,2.486,6.11,2.547.927-2.628a15.016,15.016,0,0,0,4.96-.005Z" transform="translate(-13.997 -14.096)" fill="none" stroke="#232f3e" stroke-linejoin="round" stroke-width="2"/><path id="Path_326" data-name="Path 326" d="M369.248,350.459a6.788,6.788,0,1,1-6.788-6.788A6.789,6.789,0,0,1,369.248,350.459Z" transform="translate(-30.14 -30.14)" fill="none" stroke="#232f3e" stroke-linejoin="round" stroke-width="2"/></g><g id="gear-3" data-name="gear" transform="translate(279.36 -283.64)" clip-path="url(#clip-path)"><path id="Path_327" data-name="Path 327" d="M348.8,348.433l.924,2.633,6.11-2.547-1.208-2.486a14.129,14.129,0,0,0,3.4-3.408l2.489,1.2,2.519-6.12-2.608-.9a14.087,14.087,0,0,0-.013-4.813l2.605-.914-2.547-6.11-2.489,1.208a14.117,14.117,0,0,0-3.408-3.39l1.2-2.494-6.12-2.519-.907,2.615-.008-.01a14.087,14.087,0,0,0-4.813.013h-.028l-.906-2.618-6.12,2.519,1.2,2.494a14.219,14.219,0,0,0-3.408,3.39l-2.489-1.208-2.547,6.11,2.605.914a14.224,14.224,0,0,0-.013,4.813l-2.608.9,2.519,6.12,2.489-1.2a14.13,14.13,0,0,0,3.4,3.408l-1.208,2.486,6.11,2.547.927-2.628a15.016,15.016,0,0,0,4.96-.005Z" transform="translate(-13.997 -14.096)" fill="none" stroke="#232f3e" stroke-linejoin="round" stroke-width="2"/><path id="Path_328" data-name="Path 328" d="M369.248,350.459a6.788,6.788,0,1,1-6.788-6.788A6.789,6.789,0,0,1,369.248,350.459Z" transform="translate(-30.14 -30.14)" fill="none" stroke="#232f3e" stroke-linejoin="round" stroke-width="2"/></g></g></svg>